# This file uses centimeters as units for non-parametric coordinates.

mtllib sandtexture.mtl
g default
v 1.845708 0.000000 4.000000
v 6.845708 0.000000 4.000000
v 1.845708 0.381230 4.000000
v 6.845708 0.381230 4.000000
v 1.845708 0.381230 -4.000000
v 6.845708 0.381230 -4.000000
v 1.845708 0.000000 -4.000000
v 6.845708 0.000000 -4.000000
vt 0.986410 0.727237
vt 0.047848 0.081396
vt 0.385257 0.849750
vt 0.475772 0.087969
vt 0.987252 0.832074
vt 0.385257 0.773600
vt 0.986410 0.803387
vt 0.415292 0.689162
vt 0.038924 0.683585
vt 0.384415 0.821063
vt 0.384415 0.744913
vt 0.424216 0.086974
vt 0.852157 0.083763
vt 0.858887 0.685979
vt 0.009010 0.860798
vt 0.482502 0.690186
vt 0.009010 0.784648
vt 0.008168 0.755961
vt 0.008168 0.832111
vt 0.987252 0.755924
vn 0.000000 0.000000 1.000000
vn 0.000000 0.000000 1.000000
vn 0.000000 0.000000 1.000000
vn 0.000000 0.000000 1.000000
vn 0.000000 1.000000 0.000000
vn 0.000000 1.000000 0.000000
vn 0.000000 1.000000 0.000000
vn 0.000000 1.000000 0.000000
vn 0.000000 0.000000 -1.000000
vn 0.000000 0.000000 -1.000000
vn 0.000000 0.000000 -1.000000
vn 0.000000 0.000000 -1.000000
vn 0.000000 -1.000000 0.000000
vn 0.000000 -1.000000 0.000000
vn 0.000000 -1.000000 0.000000
vn 0.000000 -1.000000 0.000000
vn 1.000000 0.000000 0.000000
vn 1.000000 0.000000 0.000000
vn 1.000000 0.000000 0.000000
vn 1.000000 0.000000 0.000000
vn -1.000000 0.000000 0.000000
vn -1.000000 0.000000 0.000000
vn -1.000000 0.000000 0.000000
vn -1.000000 0.000000 0.000000
s off
g Sand_WB Environment
usemtl lambert5SG
f 1/19/1 2/10/2 4/3/3 3/15/4
f 3/4/5 4/13/6 6/14/7 5/16/8
f 5/6/9 6/17/10 8/18/11 7/11/12
f 7/8/13 8/9/14 2/2/15 1/12/16
f 2/10/17 8/7/18 6/5/19 4/3/20
f 7/11/21 1/1/22 3/20/23 5/6/24
